<?xml version="1.0" encoding="utf-8"?>
<!-- Generator: Adobe Illustrator 21.1.0, SVG Export Plug-In . SVG Version: 6.00 Build 0)  -->
<svg version="1.1" id="Layer_1" xmlns="http://www.w3.org/2000/svg" xmlns:xlink="http://www.w3.org/1999/xlink" x="0px" y="0px"
	 viewBox="0 0 172.1 15.4" style="enable-background:new 0 0 172.1 15.4;" xml:space="preserve">
<style type="text/css">
	.st0{fill:#ED1E79;}
</style>
<g>
	<g>
		<path class="st0" d="M102.1,9.5C101.7,9.2,101.4,9,101,9c-0.4,0-0.8,0.2-1.1,0.5l-1,1c-0.1,0-0.2-0.1-0.3-0.1
			c-0.1-0.1-0.2-0.1-0.3-0.2c-1-0.6-1.8-1.4-2.7-2.4c-0.4-0.5-0.7-0.9-0.9-1.4c0.3-0.2,0.5-0.5,0.8-0.7c0.1-0.1,0.2-0.2,0.3-0.3
			c0.7-0.7,0.7-1.6,0-2.2l-0.9-0.9c-0.1-0.1-0.2-0.2-0.3-0.3c-0.2-0.2-0.4-0.4-0.6-0.6c-0.3-0.3-0.7-0.5-1.1-0.5s-0.8,0.2-1.1,0.5
			c0,0,0,0,0,0l-1.1,1.1C90.2,2.9,90,3.4,89.9,4c-0.1,0.9,0.2,1.8,0.4,2.4c0.5,1.4,1.3,2.7,2.5,4.1c1.4,1.7,3.1,3,5.1,4
			c0.7,0.4,1.7,0.8,2.9,0.8c0.1,0,0.1,0,0.2,0c0.8,0,1.4-0.3,1.9-0.8c0,0,0,0,0,0c0.2-0.2,0.4-0.4,0.6-0.6c0.1-0.1,0.3-0.3,0.4-0.4
			c0.3-0.3,0.5-0.7,0.5-1.1c0-0.4-0.2-0.8-0.5-1.1L102.1,9.5z M103.2,13C103.2,13,103.2,13,103.2,13c-0.1,0.1-0.3,0.3-0.4,0.4
			c-0.2,0.2-0.4,0.4-0.6,0.6c-0.3,0.4-0.7,0.5-1.2,0.5c0,0-0.1,0-0.1,0c-1-0.1-1.9-0.4-2.5-0.8c-1.8-0.9-3.5-2.2-4.8-3.8
			c-1.1-1.3-1.8-2.6-2.3-3.9c-0.3-0.8-0.4-1.4-0.4-2c0-0.4,0.2-0.7,0.4-1L92.4,2c0.2-0.1,0.3-0.2,0.5-0.2c0.2,0,0.4,0.1,0.5,0.2
			c0,0,0,0,0,0c0.2,0.2,0.4,0.4,0.6,0.6c0.1,0.1,0.2,0.2,0.3,0.3l0.9,0.9c0.3,0.3,0.3,0.7,0,1C95,4.9,94.9,5,94.8,5.1
			c-0.3,0.3-0.5,0.5-0.8,0.8c0,0,0,0,0,0c-0.3,0.3-0.2,0.6-0.2,0.7c0,0,0,0,0,0c0.2,0.6,0.6,1.1,1,1.7l0,0c0.9,1.1,1.8,2,2.9,2.6
			c0.1,0.1,0.3,0.2,0.4,0.2c0.1,0.1,0.2,0.1,0.3,0.2c0,0,0,0,0,0c0.1,0.1,0.2,0.1,0.3,0.1c0.3,0,0.4-0.2,0.5-0.2l1.1-1.1
			c0.1-0.1,0.3-0.2,0.5-0.2c0.2,0,0.4,0.1,0.5,0.2c0,0,0,0,0,0l1.8,1.8C103.6,12.3,103.6,12.6,103.2,13z"/>
		<path class="st0" d="M98.2,3.7c0.9,0.1,1.6,0.5,2.2,1.2c0.6,0.6,1,1.4,1.2,2.2c0,0.2,0.2,0.4,0.4,0.4c0,0,0,0,0.1,0
			c0.2,0,0.4-0.3,0.4-0.5c-0.2-1-0.7-2-1.4-2.7c-0.7-0.7-1.7-1.2-2.7-1.4c-0.2,0-0.5,0.1-0.5,0.4S98,3.6,98.2,3.7z"/>
		<path class="st0" d="M105.3,6.8c-0.3-1.7-1.1-3.2-2.3-4.5s-2.8-2-4.5-2.3C98.2,0,98,0.1,98,0.4c0,0.2,0.1,0.5,0.4,0.5
			c1.5,0.3,2.9,1,4,2.1c1.1,1.1,1.8,2.5,2.1,4c0,0.2,0.2,0.4,0.4,0.4c0,0,0,0,0.1,0C105.2,7.3,105.3,7,105.3,6.8z"/>
	</g>
</g>
<path class="st0" d="M137.3,5.3v9.8c0,0.2,0.1,0.3,0.3,0.3h15.1c0.2,0,0.3-0.1,0.3-0.3V5.3c0-0.2-0.1-0.3-0.3-0.3h-15.1
	C137.4,5,137.3,5.1,137.3,5.3z M145,11.3l-5.7-5c-0.2-0.2-0.1-0.5,0.2-0.5h11.4c0.3,0,0.4,0.3,0.2,0.5l-5.7,5
	C145.2,11.4,145.1,11.4,145,11.3z M142.4,10.4l-3.8,3.3c-0.2,0.2-0.5,0-0.5-0.2V6.9c0-0.2,0.3-0.4,0.5-0.2l3.8,3.3
	C142.5,10.1,142.5,10.3,142.4,10.4z M143.4,10.9l1.6,1.4c0.1,0.1,0.3,0.1,0.4,0l1.6-1.4c0.1-0.1,0.3-0.1,0.4,0l3.7,3.3
	c0.2,0.2,0.1,0.5-0.2,0.5h-11.4c-0.3,0-0.4-0.3-0.2-0.5l3.7-3.3C143.1,10.8,143.3,10.8,143.4,10.9z M147.9,10l3.8-3.3
	c0.2-0.2,0.5,0,0.5,0.2v6.7c0,0.2-0.3,0.4-0.5,0.2l-3.8-3.3C147.8,10.3,147.8,10.1,147.9,10z"/>
<g>
	<g>
		<g>
			<path class="st0" d="M4.9,11.3C4.9,11.3,4.9,11.4,4.9,11.3c0,0.1,0,0.1,0,0.1c0,0,0,0,0,0.1c0,0,0,0,0,0.1l0,0.1c0,0,0,0,0,0.1
				c0,0,0,0.1,0,0l0,0c0,0,0,0.1-0.1,0.1l0,0c0,0,0,0,0,0l-3.9,3.4c-0.1,0.1-0.2,0.1-0.3,0.1c-0.2,0-0.3-0.1-0.4-0.3
				C0,14.9,0,14.8,0,14.6c0-0.2,0.1-0.3,0.2-0.4l3.3-2.8L0.2,8.6C0.1,8.5,0,8.3,0,8.2C0,8,0,7.8,0.1,7.6c0.1-0.2,0.2-0.3,0.3-0.3
				c0.1,0,0.3,0,0.4,0.1l3.9,3.4h0c0,0,0,0,0.1,0.1c0,0,0,0,0,0c0,0,0,0,0,0c0,0,0,0.1,0,0.1h0c0,0,0,0,0,0c0,0,0,0.1,0,0.1l0,0.1
				C4.9,11.2,4.9,11.2,4.9,11.3C4.9,11.3,4.9,11.3,4.9,11.3C4.9,11.3,4.9,11.3,4.9,11.3z"/>
		</g>
	</g>
</g>
<path class="st0" d="M28.7,9.6h-1.6v5.8h-2.4V9.6h-1.1V7.5h1.1V6.2c0-1,0.5-2.4,2.4-2.4l1.8,0v2h-1.3c-0.2,0-0.5,0.1-0.5,0.6v1.2
	h1.8L28.7,9.6z"/>
<g>
	<path class="st0" d="M68.1,7.5h2.5v7.9h-2.5V7.5z M69.3,3.5c0.8,0,1.4,0.6,1.4,1.4c0,0.8-0.6,1.4-1.4,1.4c-0.8,0-1.4-0.6-1.4-1.4
		C67.9,4.2,68.5,3.5,69.3,3.5"/>
	<path class="st0" d="M72.1,7.5h2.4v1.1h0c0.3-0.6,1.1-1.3,2.3-1.3c2.5,0,3,1.6,3,3.8v4.3h-2.5v-3.9c0-0.9,0-2.1-1.3-2.1
		c-1.3,0-1.5,1-1.5,2v3.9h-2.5V7.5z"/>
</g>
<path class="st0" d="M48.2,15.4c3.8,0,5.8-3.1,5.8-5.8c0-0.1,0-0.2,0-0.3c0.4-0.3,0.7-0.7,1-1.1c-0.4,0.2-0.8,0.3-1.2,0.3
	c0.4-0.3,0.7-0.7,0.9-1.1c-0.4,0.2-0.8,0.4-1.3,0.5c-0.4-0.4-0.9-0.6-1.5-0.6c-1.1,0-2.1,0.9-2.1,2.1c0,0.2,0,0.3,0.1,0.5
	c-1.7-0.1-3.2-0.9-4.2-2.1c-0.2,0.3-0.3,0.7-0.3,1c0,0.7,0.4,1.3,0.9,1.7c-0.3,0-0.7-0.1-0.9-0.3c0,0,0,0,0,0c0,1,0.7,1.8,1.6,2
	c-0.2,0-0.4,0.1-0.5,0.1c-0.1,0-0.3,0-0.4,0c0.3,0.8,1,1.4,1.9,1.4c-0.7,0.6-1.6,0.9-2.5,0.9c-0.2,0-0.3,0-0.5,0
	C45.9,15.1,47,15.4,48.2,15.4"/>
<g>
	<path class="st0" d="M123.8,3.5H119c-1.9,0-3.5,1.6-3.5,3.5v4.8c0,1.9,1.6,3.5,3.5,3.5h4.8c1.9,0,3.5-1.6,3.5-3.5V7.1
		C127.3,5.1,125.7,3.5,123.8,3.5z M126.1,11.9c0,1.3-1,2.3-2.3,2.3H119c-1.3,0-2.3-1-2.3-2.3V7.1c0-1.3,1-2.3,2.3-2.3h4.8
		c1.3,0,2.3,1,2.3,2.3L126.1,11.9L126.1,11.9z"/>
	<path class="st0" d="M121.4,6.4c-1.7,0-3.1,1.4-3.1,3.1s1.4,3.1,3.1,3.1s3.1-1.4,3.1-3.1S123.1,6.4,121.4,6.4z M121.4,11.3
		c-1,0-1.9-0.8-1.9-1.9s0.8-1.9,1.9-1.9c1,0,1.9,0.8,1.9,1.9C123.2,10.5,122.4,11.3,121.4,11.3z"/>
	<circle class="st0" cx="124.4" cy="6.4" r="0.7"/>
</g>
<path class="st0" d="M171.9,15.4h-6c-0.1,0-0.1-0.1-0.1-0.1v-6c0-0.1,0.1-0.1,0.1-0.1h6c0.1,0,0.1,0.1,0.1,0.1v6
	C172.1,15.3,172,15.4,171.9,15.4z"/>
</svg>
