<?xml version="1.0" encoding="utf-8"?>
<!-- Generator: Adobe Illustrator 21.1.0, SVG Export Plug-In . SVG Version: 6.00 Build 0)  -->
<svg version="1.1" id="Layer_1" xmlns="http://www.w3.org/2000/svg" xmlns:xlink="http://www.w3.org/1999/xlink" x="0px" y="0px"
	 viewBox="0 0 15.7 10.4" style="enable-background:new 0 0 15.7 10.4;" xml:space="preserve">
<style type="text/css">
	.st0{fill:#ED1E79;}
</style>
<path class="st0" d="M0,0.3v9.8c0,0.2,0.1,0.3,0.3,0.3h15.1c0.2,0,0.3-0.1,0.3-0.3V0.3c0-0.2-0.1-0.3-0.3-0.3H0.3C0.1,0,0,0.1,0,0.3
	z M7.7,6.3L2,1.3C1.8,1.1,1.9,0.8,2.1,0.8h11.4c0.3,0,0.4,0.3,0.2,0.5L8,6.3C7.9,6.3,7.8,6.3,7.7,6.3z M5,5.4L1.2,8.7
	C1,8.9,0.8,8.8,0.8,8.5V1.8c0-0.2,0.3-0.4,0.5-0.2L5,5C5.2,5.1,5.2,5.3,5,5.4z M6,5.9l1.6,1.4c0.1,0.1,0.3,0.1,0.4,0l1.6-1.4
	c0.1-0.1,0.3-0.1,0.4,0l3.7,3.3c0.2,0.2,0.1,0.5-0.2,0.5H2.1C1.9,9.6,1.8,9.3,2,9.1l3.7-3.3C5.8,5.8,5.9,5.8,6,5.9z M10.6,5l3.8-3.3
	c0.2-0.2,0.5,0,0.5,0.2v6.7c0,0.2-0.3,0.4-0.5,0.2l-3.8-3.3C10.5,5.3,10.5,5.1,10.6,5z"/>
</svg>
