<?xml version="1.0" encoding="utf-8"?>
<!-- Generator: Adobe Illustrator 21.1.0, SVG Export Plug-In . SVG Version: 6.00 Build 0)  -->
<svg version="1.1" id="Layer_1" xmlns="http://www.w3.org/2000/svg" xmlns:xlink="http://www.w3.org/1999/xlink" x="0px" y="0px"
	 viewBox="0 0 4.9 8.1" style="enable-background:new 0 0 4.9 8.1;" xml:space="preserve">
<style type="text/css">
	.st0{fill:#ED1E79;}
</style>
<g>
	<g>
		<g>
			<path class="st0" d="M4.9,4C4.9,4,4.9,4,4.9,4c0,0.1,0,0.1,0,0.1c0,0,0,0,0,0.1s0,0,0,0.1l0,0.1c0,0,0,0,0,0.1c0,0,0,0.1,0,0l0,0
				c0,0,0,0.1-0.1,0.1l0,0c0,0,0,0,0,0L0.8,7.9C0.7,8,0.6,8.1,0.5,8.1C0.3,8.1,0.2,8,0.1,7.8C0,7.6,0,7.4,0,7.2s0.1-0.3,0.2-0.4
				L3.5,4L0.2,1.2C0.1,1.1,0,1,0,0.8s0-0.3,0.1-0.5C0.2,0.2,0.3,0.1,0.4,0s0.3,0,0.4,0.1l3.9,3.4h0c0,0,0,0,0.1,0.1c0,0,0,0,0,0
				s0,0,0,0c0,0,0,0.1,0,0.1h0c0,0,0,0,0,0c0,0,0,0.1,0,0.1l0,0.1C4.9,3.9,4.9,3.9,4.9,4C4.9,3.9,4.9,3.9,4.9,4
				C4.9,3.9,4.9,3.9,4.9,4z"/>
		</g>
	</g>
</g>
</svg>
