<?xml version="1.0" encoding="utf-8"?>
<!-- Generator: Adobe Illustrator 21.1.0, SVG Export Plug-In . SVG Version: 6.00 Build 0)  -->
<svg version="1.1" id="Layer_1" xmlns="http://www.w3.org/2000/svg" xmlns:xlink="http://www.w3.org/1999/xlink" x="0px" y="0px"
	 viewBox="0 0 15 15" style="enable-background:new 0 0 15 15;" xml:space="preserve">
<style type="text/css">
	.st0{fill:#ED1E79;}
</style>
<g>
	<g>
		<path class="st0" d="M11.9,9.3c-0.3-0.3-0.7-0.5-1.1-0.5C10.4,8.8,10,9,9.7,9.3l-1,1c-0.1,0-0.2-0.1-0.2-0.1
			c-0.1-0.1-0.2-0.1-0.3-0.2C7.2,9.4,6.4,8.6,5.5,7.6C5.1,7.1,4.9,6.7,4.7,6.3C4.9,6,5.2,5.8,5.4,5.6c0.1-0.1,0.2-0.2,0.3-0.3
			c0.7-0.7,0.7-1.5,0-2.2L4.8,2.2C4.7,2.1,4.6,2,4.5,1.9C4.3,1.7,4.1,1.5,3.9,1.3C3.6,1,3.3,0.9,2.9,0.9S2.1,1,1.8,1.3c0,0,0,0,0,0
			L0.7,2.4C0.3,2.8,0.1,3.3,0,3.9c-0.1,0.9,0.2,1.8,0.4,2.4c0.5,1.4,1.3,2.7,2.4,4c1.4,1.7,3.1,3,5,3.9c0.7,0.3,1.7,0.8,2.8,0.8
			c0.1,0,0.1,0,0.2,0c0.7,0,1.3-0.3,1.8-0.8c0,0,0,0,0,0c0.2-0.2,0.4-0.4,0.6-0.6c0.1-0.1,0.3-0.3,0.4-0.4c0.3-0.3,0.5-0.7,0.5-1.1
			c0-0.4-0.2-0.8-0.5-1.1L11.9,9.3z M13,12.6C13,12.6,13,12.6,13,12.6c-0.1,0.1-0.3,0.3-0.4,0.4c-0.2,0.2-0.4,0.4-0.6,0.6
			c-0.3,0.3-0.7,0.5-1.2,0.5c0,0-0.1,0-0.1,0c-0.9-0.1-1.8-0.4-2.5-0.7c-1.8-0.9-3.4-2.1-4.7-3.7C2.4,8.5,1.7,7.3,1.2,6
			C0.9,5.2,0.8,4.6,0.9,4C0.9,3.6,1,3.3,1.3,3L2.4,2c0.2-0.1,0.3-0.2,0.5-0.2c0.2,0,0.4,0.1,0.5,0.2c0,0,0,0,0,0
			c0.2,0.2,0.4,0.4,0.6,0.6C4,2.6,4.1,2.7,4.2,2.8l0.9,0.9c0.3,0.3,0.3,0.6,0,1C5,4.8,4.9,4.9,4.8,5C4.5,5.2,4.3,5.5,4,5.7
			c0,0,0,0,0,0C3.7,6,3.8,6.3,3.8,6.5c0,0,0,0,0,0c0.2,0.5,0.5,1.1,1,1.7l0,0c0.9,1.1,1.8,1.9,2.8,2.6c0.1,0.1,0.3,0.1,0.4,0.2
			C8.2,11,8.3,11,8.4,11.1c0,0,0,0,0,0c0.1,0.1,0.2,0.1,0.3,0.1C9,11.2,9.2,11,9.2,11l1.1-1.1c0.1-0.1,0.3-0.2,0.5-0.2
			c0.2,0,0.4,0.1,0.5,0.2c0,0,0,0,0,0l1.7,1.7C13.3,12,13.3,12.3,13,12.6z"/>
		<path class="st0" d="M8.1,3.6c0.8,0.1,1.6,0.5,2.2,1.1s1,1.4,1.1,2.2c0,0.2,0.2,0.4,0.4,0.4c0,0,0,0,0.1,0c0.2,0,0.4-0.3,0.4-0.5
			c-0.2-1-0.6-1.9-1.4-2.6S9.3,2.9,8.3,2.7C8,2.7,7.8,2.8,7.8,3.1C7.7,3.3,7.9,3.5,8.1,3.6z"/>
		<path class="st0" d="M15,6.6c-0.3-1.7-1.1-3.2-2.3-4.4S10,0.3,8.4,0C8.1,0,7.9,0.1,7.9,0.4c0,0.2,0.1,0.5,0.4,0.5
			c1.5,0.3,2.8,1,3.9,2c1.1,1.1,1.8,2.4,2,3.9c0,0.2,0.2,0.4,0.4,0.4c0,0,0,0,0.1,0C14.9,7.1,15,6.9,15,6.6z"/>
	</g>
</g>
</svg>
