<?xml version="1.0" encoding="utf-8"?>
<!-- Generator: Adobe Illustrator 21.1.0, SVG Export Plug-In . SVG Version: 6.00 Build 0)  -->
<svg version="1.1" id="Layer_1" xmlns="http://www.w3.org/2000/svg" xmlns:xlink="http://www.w3.org/1999/xlink" x="0px" y="0px"
	 viewBox="0 0 70.9 11.9" style="enable-background:new 0 0 70.9 11.9;" xml:space="preserve">
<style type="text/css">
	.st0{fill:#ED1E79;}
</style>
<g>
	<path class="st0" d="M5.2,5.9H3.6v5.8H1.1V5.9H0V3.9h1.1V2.5c0-1,0.5-2.4,2.4-2.4l1.8,0v2H4.1c-0.2,0-0.5,0.1-0.5,0.6v1.2h1.8
		L5.2,5.9z"/>
	<g>
		<path class="st0" d="M36.1,3.9h2.5v7.9h-2.5V3.9z M37.4,0c0.8,0,1.4,0.6,1.4,1.4c0,0.8-0.6,1.4-1.4,1.4c-0.8,0-1.4-0.6-1.4-1.4
			C35.9,0.6,36.6,0,37.4,0"/>
		<path class="st0" d="M40.1,3.9h2.4V5h0c0.3-0.6,1.1-1.3,2.3-1.3c2.5,0,3,1.6,3,3.8v4.3h-2.5V8c0-0.9,0-2.1-1.3-2.1
			c-1.3,0-1.5,1-1.5,2v3.9h-2.5V3.9z"/>
	</g>
	<path class="st0" d="M18.6,11.8c3.8,0,5.8-3.1,5.8-5.8c0-0.1,0-0.2,0-0.3c0.4-0.3,0.7-0.7,1-1.1c-0.4,0.2-0.8,0.3-1.2,0.3
		c0.4-0.3,0.7-0.7,0.9-1.1c-0.4,0.2-0.8,0.4-1.3,0.5c-0.4-0.4-0.9-0.6-1.5-0.6c-1.1,0-2.1,0.9-2.1,2.1c0,0.2,0,0.3,0.1,0.5
		c-1.7-0.1-3.2-0.9-4.2-2.1c-0.2,0.3-0.3,0.7-0.3,1c0,0.7,0.4,1.3,0.9,1.7c-0.3,0-0.7-0.1-0.9-0.3c0,0,0,0,0,0c0,1,0.7,1.8,1.6,2
		c-0.2,0-0.4,0.1-0.5,0.1c-0.1,0-0.3,0-0.4,0c0.3,0.8,1,1.4,1.9,1.4c-0.7,0.6-1.6,0.9-2.5,0.9c-0.2,0-0.3,0-0.5,0
		C16.3,11.4,17.4,11.8,18.6,11.8"/>
	<g>
		<path class="st0" d="M67.3,0h-4.8C60.6,0,59,1.6,59,3.5v4.8c0,1.9,1.6,3.5,3.5,3.5h4.8c1.9,0,3.5-1.6,3.5-3.5V3.5
			C70.9,1.6,69.3,0,67.3,0z M69.7,8.3c0,1.3-1,2.3-2.3,2.3h-4.8c-1.3,0-2.3-1-2.3-2.3V3.5c0-1.3,1-2.3,2.3-2.3h4.8
			c1.3,0,2.3,1,2.3,2.3V8.3L69.7,8.3z"/>
		<path class="st0" d="M64.9,2.9c-1.7,0-3.1,1.4-3.1,3.1S63.2,9,64.9,9S68,7.6,68,5.9S66.6,2.9,64.9,2.9z M64.9,7.8
			c-1,0-1.9-0.8-1.9-1.9s0.8-1.9,1.9-1.9c1,0,1.9,0.8,1.9,1.9C66.8,7,66,7.8,64.9,7.8z"/>
		<circle class="st0" cx="68" cy="2.9" r="0.7"/>
	</g>
</g>
</svg>
