<?xml version="1.0" encoding="utf-8"?>
<!-- Generator: Adobe Illustrator 21.1.0, SVG Export Plug-In . SVG Version: 6.00 Build 0)  -->
<svg version="1.1" id="Layer_1" xmlns="http://www.w3.org/2000/svg" xmlns:xlink="http://www.w3.org/1999/xlink" x="0px" y="0px"
	 viewBox="0 0 70.9 11.9" style="enable-background:new 0 0 70.9 11.9;" xml:space="preserve">
<style type="text/css">
	.st0{fill:#ED1E79;}
</style>
<path class="st0" d="M5.2,6H3.6v5.8H1.1V6H0V4h1.1V2.6c0-1,0.5-2.4,2.4-2.4h1.8v2H4.1c-0.2,0-0.5,0.1-0.5,0.6V4h1.8L5.2,6z"/>
<g>
	<path class="st0" d="M37.3,3.9h2.5v7.9h-2.5V3.9z M38.6,0C39.4,0,40,0.6,40,1.4s-0.6,1.4-1.4,1.4c-0.8,0-1.4-0.6-1.4-1.4
		C37.1,0.6,37.8,0,38.6,0"/>
	<path class="st0" d="M41.3,3.9h2.4V5l0,0C44,4.4,44.8,3.7,46,3.7c2.5,0,3,1.6,3,3.8v4.3h-2.5V8c0-0.9,0-2.1-1.3-2.1s-1.5,1-1.5,2
		v3.9h-2.5L41.3,3.9L41.3,3.9z"/>
</g>
<path class="st0" d="M19.5,11.8c4.7,0,7.4-3.9,7.4-7.4c0-0.1,0-0.2,0-0.4c0.5-0.4,0.8-0.8,1.2-1.4C27.5,2.9,26.9,3,26.5,3
	c0.5-0.4,0.8-0.8,1.2-1.4c-0.5,0.2-1.1,0.5-1.7,0.6c-0.5-0.5-1.2-0.7-1.9-0.7c-1.4,0-2.6,1.2-2.6,2.6c0,0.2,0,0.4,0.1,0.6
	c-2.1-0.1-4-1.2-5.3-2.6c-0.2,0.4-0.4,0.8-0.4,1.3c0,0.8,0.5,1.7,1.2,2.1c-0.4,0-0.8-0.1-1.2-0.4l0,0c0,1.3,0.8,2.3,2,2.5
	c-0.2,0-0.5,0.1-0.6,0.1c-0.1,0-0.4,0-0.5,0c0.4,1.1,1.3,1.8,2.4,1.8c-0.8,0.7-2,1.2-3.2,1.2c-0.2,0-0.4,0-0.6,0
	C16.6,11.3,17.9,11.8,19.5,11.8"/>
<g>
	<path class="st0" d="M67.3,0h-4.8C60.6,0,59,1.6,59,3.5v4.8c0,1.9,1.6,3.5,3.5,3.5h4.8c1.9,0,3.5-1.6,3.5-3.5V3.5
		C70.9,1.6,69.3,0,67.3,0z M69.7,8.3c0,1.3-1,2.3-2.3,2.3h-4.8c-1.3,0-2.3-1-2.3-2.3V3.5c0-1.3,1-2.3,2.3-2.3h4.8
		c1.3,0,2.3,1,2.3,2.3V8.3L69.7,8.3z"/>
	<path class="st0" d="M64.9,2.9c-1.7,0-3.1,1.4-3.1,3.1s1.4,3,3.1,3S68,7.6,68,5.9S66.6,2.9,64.9,2.9z M64.9,7.8
		c-1,0-1.9-0.8-1.9-1.9S63.8,4,64.9,4c1,0,1.9,0.8,1.9,1.9S66,7.8,64.9,7.8z"/>
	<circle class="st0" cx="68" cy="2.9" r="0.7"/>
</g>
</svg>
